<?xml version="1.0" standalone="no"?>
<!DOCTYPE svg PUBLIC "-//W3C//DTD SVG 20010904//EN"
 "http://www.w3.org/TR/2001/REC-SVG-20010904/DTD/svg10.dtd">
<svg version="1.0" xmlns="http://www.w3.org/2000/svg"
 width="1280.000000pt" height="1142.000000pt" viewBox="0 0 1280.000000 1142.000000"
 preserveAspectRatio="xMidYMid meet">
<metadata>
Created by potrace 1.15, written by Peter Selinger 2001-2017
</metadata>
<g transform="translate(0.000000,1142.000000) scale(0.100000,-0.100000)"
fill="#000000" stroke="none">
<path d="M4960 11414 c-14 -2 -56 -9 -95 -15 -96 -15 -245 -64 -336 -110 -127
-63 -296 -200 -411 -334 -226 -261 -291 -509 -222 -851 48 -234 38 -260 -205
-537 -38 -44 -78 -96 -90 -118 l-22 -38 73 30 c40 16 96 43 125 59 l51 29 17
-77 c30 -138 124 -298 185 -317 13 -4 23 -21 30 -48 39 -156 119 -343 197
-466 l29 -44 -14 -76 c-21 -119 -11 -295 23 -401 15 -47 36 -102 46 -122 11
-21 19 -41 19 -45 0 -4 -26 -8 -57 -9 -87 -1 -112 -8 -224 -64 -257 -129 -524
-313 -819 -565 -212 -182 -349 -277 -715 -499 -313 -191 -560 -359 -750 -511
-216 -174 -358 -272 -671 -468 -138 -86 -290 -184 -337 -218 -109 -78 -206
-179 -243 -255 -27 -54 -29 -68 -28 -164 0 -102 9 -140 58 -261 5 -12 -17 -35
-84 -88 -245 -196 -397 -466 -462 -820 -18 -97 -21 -155 -22 -351 0 -427 54
-720 310 -1667 140 -521 245 -818 385 -1094 253 -499 592 -789 1023 -875 300
-59 692 -3 1050 149 290 125 544 288 1080 697 546 416 736 526 1031 595 163
38 284 54 765 96 346 30 511 86 632 213 l33 35 65 -10 c121 -18 430 -26 618
-17 103 5 192 10 198 12 10 4 -1 71 -214 1256 -45 245 -82 458 -84 474 -3 27
0 30 42 41 145 39 362 101 510 144 184 55 223 63 231 50 4 -7 21 -58 39 -113
42 -139 63 -179 122 -242 55 -59 129 -94 198 -94 157 0 367 115 582 319 107
101 124 140 134 298 3 59 11 119 16 133 12 28 -1 24 843 260 176 49 334 94
350 99 70 23 680 191 796 220 70 17 138 31 152 31 14 0 27 6 30 13 3 9 41 3
153 -25 l149 -36 143 26 c123 22 145 24 153 11 15 -24 10 -33 -29 -54 -36 -20
-37 -22 -36 -74 0 -50 3 -57 38 -87 86 -74 198 -47 240 57 14 34 15 48 5 78
-18 57 -36 71 -89 71 -35 0 -50 4 -54 16 -4 9 -5 18 -3 20 7 8 373 71 378 65
4 -3 10 -16 13 -28 6 -17 0 -24 -31 -40 -34 -16 -38 -23 -41 -59 -4 -56 11
-89 55 -118 35 -23 66 -30 120 -27 32 1 83 49 104 97 18 39 18 44 3 88 -19 55
-43 70 -95 62 -32 -5 -39 -3 -44 15 -4 11 -4 23 -1 26 3 4 88 21 188 40 142
26 184 30 190 20 12 -19 9 -37 -6 -37 -7 0 -26 -10 -41 -22 -25 -20 -27 -25
-21 -71 7 -60 31 -90 92 -113 79 -30 155 5 188 87 13 32 14 48 6 79 -15 56
-33 70 -90 70 -33 0 -50 5 -53 15 -4 8 -3 16 1 18 4 3 66 15 137 27 72 12 131
24 133 25 1 1 -2 54 -8 116 -31 340 -55 454 -135 650 -34 82 -131 304 -139
316 -1 1 -59 -19 -130 -43 -93 -32 -133 -41 -140 -34 -12 12 -3 21 53 52 27
15 31 23 31 57 0 60 -15 87 -63 115 -85 50 -170 24 -214 -64 -19 -37 -21 -51
-13 -79 18 -64 36 -81 84 -81 35 0 45 -4 49 -19 4 -17 -16 -27 -170 -80 -96
-34 -178 -61 -183 -61 -8 0 -25 40 -18 43 1 1 21 11 43 22 46 23 55 53 36 117
-9 28 -23 44 -55 63 -74 43 -150 29 -199 -37 -34 -47 -40 -80 -21 -128 19 -46
38 -60 87 -60 27 0 36 -5 41 -22 3 -13 2 -25 -2 -29 -4 -3 -86 -33 -184 -67
-165 -57 -176 -59 -181 -41 -4 15 4 24 34 39 21 11 43 29 49 40 13 24 -1 94
-25 120 -42 47 -130 64 -185 35 -109 -57 -103 -235 9 -235 37 0 59 -19 46 -40
-3 -5 -56 -25 -118 -46 -61 -20 -124 -43 -139 -50 -14 -8 -75 -59 -134 -114
-58 -55 -110 -97 -115 -94 -4 2 -50 -9 -101 -26 -101 -34 -400 -108 -1458
-365 -129 -32 -341 -83 -470 -115 -164 -40 -237 -54 -241 -46 -4 6 -63 171
-132 366 -177 501 -197 556 -266 728 -242 607 -505 1017 -936 1461 -334 343
-581 466 -1429 711 -137 39 -258 70 -270 67 -12 -3 -57 -15 -101 -26 -98 -27
-268 -61 -274 -56 -9 9 158 206 254 300 162 158 329 384 399 538 l34 74 93 17
c385 74 549 129 565 191 9 35 -9 74 -91 195 -138 203 -178 285 -199 405 -20
112 -6 202 60 374 121 316 124 406 18 616 -72 143 -130 222 -243 335 -215 214
-420 333 -666 386 -68 14 -325 27 -375 18z m-930 -1772 l0 -39 -57 -10 c-32
-6 -59 -10 -60 -9 -1 1 109 93 115 95 1 1 2 -16 2 -37z m0 -102 c0 -35 -5 -36
-78 -13 l-55 18 44 11 c76 21 89 18 89 -16z m2547 -3552 c301 -457 494 -797
652 -1148 87 -192 173 -402 167 -407 -5 -6 -628 -161 -633 -159 -1 1 -47 254
-103 561 -55 308 -134 746 -175 973 -80 438 -77 422 -71 422 2 0 76 -109 163
-242z m-3207 -508 c10 -135 29 -314 45 -403 l5 -28 -73 6 c-213 19 -1030 124
-1122 144 -32 7 -35 9 -12 10 17 1 27 7 27 16 0 9 -6 12 -15 9 -8 -4 -15 -4
-15 -1 0 3 42 21 93 41 468 186 803 362 957 503 31 28 62 63 70 79 14 26 15
20 22 -97 4 -68 12 -194 18 -279z"/>
</g>
</svg>
